# xmcd CD database file
#
# Track frame offsets:
#	150
#	37605
#	65514
#	84760
#	110154
#	139303
#	155269
#	175069
#	196007
#	226639
#	245465
#	264153
#	279079
#	294607
#
# Disc length: 4150 seconds
#
# Revision: 0
# Processed by: cddbd v1.5.2PL0 Copyright (c) Steve Scherf et al.
# Submitted via: CDex 1.51
#
DISCID=ab10340e
DTITLE=Fania - Signature Fania - Hard Salsa
DYEAR=2006
DGENRE=Salsa
TTITLE0=01 - Timbalero (Willie Colón and Héctor Lavoe)
TTITLE1=02 - Pablo Pueblo (Ruben Blades)
TTITLE2=03 - Oriza Eh (Celia Cruz/Johnny Pacheco)
TTITLE3=04 - Guarare' (Ray Barretto)
TTITLE4=05 - La Cartera (Orquesta Harlow)
TTITLE5=06 - La Cosa No Es Como Antes (Ismael Miranda)
TTITLE6=07 - Llevale A Mi Amor (Adalberto Santiago)
TTITLE7=08 - Hasta Que Se Rompa El Cuero (Sonora Ponceña)
TTITLE8=09 - Sonido Bestial (Richie Ray and Bobby Cruz)
TTITLE9=10 - De Todas Maneras Rosas (Ismael Rivera)
TTITLE10=11 - Con Salsa Y Sabor (Charlie Palmieri and Menique)
TTITLE11=12 - Ponle Punto (Pete "El Conde" Rodriguez)
TTITLE12=13 - Vete Pa'Lla (Bobby Valentín)
TTITLE13=14 - Pa' Bravo Yo (Justo Betancourt)
EXTD=YEAR: 2006
EXTT0=
EXTT1=
EXTT2=
EXTT3=
EXTT4=
EXTT5=
EXTT6=
EXTT7=
EXTT8=
EXTT9=
EXTT10=
EXTT11=
EXTT12=
EXTT13=
PLAYORDER=
